<svg width="121" height="120" viewBox="0 0 121 120" fill="none" xmlns="http://www.w3.org/2000/svg">
<path fill-rule="evenodd" clip-rule="evenodd" d="M26.5 40C26.5 44.4649 27.3794 48.8862 29.0881 53.0112C30.7968 57.1363 33.3012 60.8844 36.4584 64.0416C39.6156 67.1988 43.3637 69.7033 47.4888 71.4119C51.6138 73.1206 56.0351 74 60.5 74C64.9649 74 69.3862 73.1206 73.5112 71.4119C77.6363 69.7033 81.3844 67.1988 84.5416 64.0416C87.6988 60.8844 90.2033 57.1363 91.9119 53.0112C93.6206 48.8862 94.5 44.4649 94.5 40C94.5 30.9826 90.9179 22.3346 84.5416 15.9584C78.1654 9.58213 69.5174 6 60.5 6C51.4826 6 42.8346 9.58213 36.4584 15.9584C30.0821 22.3346 26.5 30.9826 26.5 40ZM90.5 40C90.5 47.9565 87.3393 55.5871 81.7132 61.2132C76.0871 66.8393 68.4565 70 60.5 70C52.5435 70 44.9129 66.8393 39.2868 61.2132C33.6607 55.5871 30.5 47.9565 30.5 40C30.5 32.0435 33.6607 24.4129 39.2868 18.7868C44.9129 13.1607 52.5435 10 60.5 10C68.4565 10 76.0871 13.1607 81.7132 18.7868C87.3393 24.4129 90.5 32.0435 90.5 40Z" fill="#358E3F"/>
<path fill-rule="evenodd" clip-rule="evenodd" d="M46.5 40C46.5 57.584 52.268 72 60.5 72C68.732 72 74.5 57.584 74.5 40C74.5 22.416 68.732 8 60.5 8C52.268 8 46.5 22.416 46.5 40ZM70.5 40C70.5 55.556 65.52 68 60.5 68C55.48 68 50.5 55.556 50.5 40C50.5 24.444 55.48 12 60.5 12C65.52 12 70.5 24.444 70.5 40Z" fill="#358E3F"/>
<path d="M35.44 21.248L38.12 18.28C38.548 18.664 39.004 19.04 39.492 19.404C44.764 23.356 53.084 25.764 62.152 25.764C69.884 25.764 77.1 24.016 82.372 21.004C83.5867 20.3167 84.7344 19.5172 85.8 18.616L88.4 21.656C87.208 22.676 85.856 23.616 84.36 24.472C78.452 27.852 70.552 29.764 62.152 29.764C52.272 29.764 43.104 27.112 37.092 22.604C36.5207 22.1763 35.9695 21.7265 35.44 21.248ZM35.44 58.8L38.12 61.76C38.548 61.376 39.004 61 39.492 60.64C44.764 56.688 53.084 54.28 62.152 54.28C69.884 54.28 77.1 56.024 82.372 59.04C83.656 59.776 84.804 60.576 85.8 61.424L88.4 58.384C87.1443 57.3212 85.7917 56.3784 84.36 55.568C78.452 52.192 70.552 50.28 62.152 50.28C52.272 50.28 43.104 52.932 37.092 57.436C36.508 57.876 35.956 58.332 35.44 58.8ZM28.5 42V38H92.5V42H28.5Z" fill="#358E3F"/>
<path d="M38.408 90.4H42.048V110H38.408V90.4ZM28.272 110H24.632V90.4H28.272V110ZM38.688 101.6H27.964V98.492H38.688V101.6ZM51.276 110V93.48H44.78V90.4H61.412V93.48H54.916V110H51.276ZM68.3932 110V93.48H61.8972V90.4H78.5292V93.48H72.0332V110H68.3932ZM81.2609 110V90.4H89.3249C91.0609 90.4 92.5449 90.68 93.7769 91.24C95.0276 91.8 95.9889 92.6027 96.6609 93.648C97.3329 94.6933 97.6689 95.9347 97.6689 97.372C97.6689 98.8093 97.3329 100.051 96.6609 101.096C95.9889 102.141 95.0276 102.944 93.7769 103.504C92.5449 104.064 91.0609 104.344 89.3249 104.344H83.2769L84.9009 102.636V110H81.2609ZM84.9009 103.028L83.2769 101.264H89.1569C90.7622 101.264 91.9662 100.928 92.7689 100.256C93.5902 99.5653 94.0009 98.604 94.0009 97.372C94.0009 96.1213 93.5902 95.16 92.7689 94.488C91.9662 93.816 90.7622 93.48 89.1569 93.48H83.2769L84.9009 91.688V103.028Z" fill="#358E3F"/>
</svg>
