<svg width="121" height="120" viewBox="0 0 121 120" fill="none" xmlns="http://www.w3.org/2000/svg">
<path d="M60.5 81.6C48.5 81.6 38.9 72 38.9 60C38.9 48 48.5 38.4 60.5 38.4C72.5 38.4 82.1 48 82.1 60C82.1 72 72.5 81.6 60.5 81.6ZM60.5 43.2C51.14 43.2 43.7 50.64 43.7 60C43.7 69.36 51.14 76.8 60.5 76.8C69.86 76.8 77.3 69.36 77.3 60C77.3 50.64 69.86 43.2 60.5 43.2Z" fill="#358E3F"/>
<path d="M66.98 105.6H54.02L50.42 94.56C48.02 93.84 45.62 92.88 43.46 91.68L32.9 96.96L23.78 87.84L29.06 77.28C27.86 75.12 26.9 72.72 26.18 70.32L14.9 66.48V53.52L25.94 49.92C26.66 47.52 27.62 45.12 28.82 42.96L23.54 32.4L32.66 23.28L43.22 28.56C45.38 27.36 47.78 26.4 50.18 25.68L54.02 14.4H66.98L70.58 25.44C72.98 26.16 75.38 27.12 77.54 28.32L88.1 23.04L97.22 32.16L91.94 42.72C93.14 44.88 94.1 47.28 94.82 49.68L105.86 53.28V66.24L94.82 69.84C94.1 72.24 93.14 74.64 91.94 76.8L97.22 87.36L88.1 96.48L77.54 91.2C75.38 92.4 72.98 93.36 70.58 94.08L66.98 105.6ZM57.38 100.8H63.62L66.98 90.48L68.18 90.24C71.06 89.52 73.7 88.32 76.34 86.88L77.54 86.16L87.14 90.96L91.46 86.64L86.66 77.04L87.38 75.84C88.82 73.44 90.02 70.56 90.74 67.68L90.98 66.48L101.3 63.12V56.88L90.98 53.52L90.74 52.32C90.02 49.44 88.82 46.8 87.38 44.16L86.66 42.96L91.46 33.36L87.14 29.04L77.54 33.84L76.34 33.12C73.7 31.68 71.06 30.48 68.18 29.76L66.98 29.52L63.62 19.2H57.38L54.02 29.52L52.82 29.76C49.94 30.48 47.3 31.68 44.66 33.12L43.46 33.84L33.86 29.04L29.54 33.36L34.34 42.96L33.62 44.16C32.18 46.56 30.98 49.44 30.26 52.32L30.02 53.52L19.7 56.88V63.12L30.02 66.48L30.26 67.68C30.98 70.56 32.18 73.2 33.62 75.84L34.34 77.04L29.54 86.64L33.86 90.96L43.46 86.16L44.66 86.88C47.3 88.32 49.94 89.52 52.82 90.24L54.02 90.48L57.38 100.8Z" fill="#358E3F"/>
</svg>
