<svg width="109" height="120" viewBox="0 0 109 120" fill="none" xmlns="http://www.w3.org/2000/svg">
<path d="M17.2453 64.5406L7.68594 86H0.71875L11.2188 63.0531C6.28594 60.5484 2.99375 56.0094 2.99375 47.6203C2.98281 35.8734 10.4312 30 19.2797 30H28.2812V86H22.2547V64.5406H17.2453ZM22.2547 35.0859H19.0391C14.1828 35.0859 9.47969 38.3016 9.47969 47.6203C9.47969 56.6219 13.7891 59.5203 19.0391 59.5203H22.2547V35.0859Z" fill="#358E3F"/>
<path d="M86.9167 46.9166L85.8212 48.977C86.3323 49.2486 86.9261 49.3206 87.4873 49.179C88.0485 49.0373 88.537 48.6922 88.858 48.2105L86.9167 46.9166ZM92.75 38.1666L94.6913 39.4616C94.9986 39.0007 95.1319 38.4455 95.0674 37.8954C95.0028 37.3452 94.7446 36.8359 94.339 36.4586L92.75 38.1666ZM103.833 54.5L106.162 54.3448C106.123 53.7541 105.86 53.2004 105.428 52.7959C104.995 52.3915 104.425 52.1665 103.833 52.1666V54.5ZM80.5 54.5V52.1666C79.8812 52.1666 79.2877 52.4125 78.8501 52.8501C78.4125 53.2877 78.1667 53.8811 78.1667 54.5H80.5ZM80.5 62.6667H78.1667C78.1667 63.2855 78.4125 63.879 78.8501 64.3166C79.2877 64.7542 79.8812 65 80.5 65V62.6667ZM91.5833 62.6667H93.9167C93.9167 62.0478 93.6708 61.4543 93.2333 61.0167C92.7957 60.5792 92.2022 60.3333 91.5833 60.3333V62.6667ZM88.858 48.2105L94.6913 39.4616L90.8087 36.8716L84.9753 45.6216L88.858 48.2105ZM92.75 38.1666C93.2827 37.6001 93.8116 37.0299 94.3367 36.4563L94.3355 36.454C94.3303 36.449 94.3249 36.4443 94.3192 36.44C94.2882 36.4109 94.2563 36.3829 94.2235 36.356C93.9244 36.1079 93.6112 35.8773 93.2855 35.6653C92.4183 35.1098 91.5003 34.6379 90.5438 34.256C88.1043 33.262 84.4492 32.3333 79.3333 32.3333V37C83.8717 37 86.926 37.8213 88.7822 38.5773C89.4639 38.8475 90.1186 39.1815 90.7375 39.5748C90.8926 39.6753 91.0425 39.7836 91.1867 39.8991L91.1843 39.8968L91.175 39.8886C91.1726 39.8863 91.1703 39.884 91.168 39.8816L91.1645 39.8781C91.6894 39.3043 92.2179 38.7338 92.75 38.1666ZM79.3333 32.3333C73.8582 32.3333 67.7717 34.7845 63.0607 39.065C58.3077 43.3816 54.8333 49.67 54.8333 57.4167H59.5C59.5 51.1621 62.2813 46.0766 66.1978 42.5183C70.1563 38.925 75.1532 37 79.3333 37V32.3333ZM54.8333 57.4167C54.8333 73.4 67.6585 83.6667 80.5 83.6667V79C70.0082 79 59.5 70.6 59.5 57.4167H54.8333ZM103.833 54.5V52.1666H80.5V56.8333H103.833V54.5ZM78.1667 54.5V62.6667H82.8333V54.5H78.1667ZM80.5 65H91.5833V60.3333H80.5V65ZM89.25 62.6667C89.25 63.481 88.641 64.9218 87.0112 66.26C85.456 67.5363 83.2032 68.5 80.5 68.5V73.1667C84.3302 73.1667 87.619 71.7982 89.9722 69.8662C92.2507 67.9972 93.9167 65.3523 93.9167 62.6667H89.25ZM80.5 68.5C73.9468 68.5 70 62.8953 70 57.4167H65.3333C65.3333 64.7713 70.7198 73.1667 80.5 73.1667V68.5ZM70 57.4167C70 52.358 74.718 47.5 80.5 47.5V42.8333C72.282 42.8333 65.3333 49.642 65.3333 57.4167H70ZM80.5 47.5C82.8333 47.5 84.7525 48.4088 85.8212 48.977L88.0122 44.8563C86.7475 44.1843 83.9988 42.8333 80.5 42.8333V47.5ZM80.5 83.6667C87.1173 83.6667 95.0367 80.9693 100.427 74.0125L96.74 71.1542C92.386 76.7705 85.9483 79 80.5 79V83.6667ZM100.427 74.0125C103.971 69.4403 106.789 63.7575 106.162 54.3448L101.505 54.6551C102.045 62.7437 99.7057 67.3275 96.74 71.1542L100.427 74.0125Z" fill="#358E3F"/>
<path d="M40.5 0L40.5 120" stroke="#358E3F" stroke-width="4"/>
<path d="M38.5 2L108.5 2" stroke="#358E3F" stroke-width="4"/>
</svg>
