<svg width="120" height="120" viewBox="0 0 120 120" fill="none" xmlns="http://www.w3.org/2000/svg">
<path fill-rule="evenodd" clip-rule="evenodd" d="M6.90002 46C6.90002 51.1347 7.91138 56.2191 9.87633 60.963C11.8413 65.7068 14.7214 70.0171 18.3521 73.6479C21.9829 77.2787 26.2933 80.1588 31.0371 82.1237C35.7809 84.0887 40.8653 85.1 46 85.1C51.1347 85.1 56.2191 84.0887 60.963 82.1237C65.7068 80.1588 70.0171 77.2787 73.6479 73.6479C77.2787 70.0171 80.1588 65.7068 82.1237 60.963C84.0887 56.2191 85.1 51.1347 85.1 46C85.1 35.6301 80.9806 25.6848 73.6479 18.3522C66.3152 11.0195 56.37 6.90002 46 6.90002C35.6301 6.90002 25.6848 11.0195 18.3521 18.3522C11.0195 25.6848 6.90002 35.6301 6.90002 46ZM80.5 46C80.5 55.15 76.8652 63.9252 70.3952 70.3952C63.9252 76.8652 55.15 80.5 46 80.5C36.8501 80.5 28.0748 76.8652 21.6048 70.3952C15.1348 63.9252 11.5 55.15 11.5 46C11.5 36.8501 15.1348 28.0748 21.6048 21.6048C28.0748 15.1348 36.8501 11.5 46 11.5C55.15 11.5 63.9252 15.1348 70.3952 21.6048C76.8652 28.0748 80.5 36.8501 80.5 46Z" fill="#B6B4B4"/>
<path fill-rule="evenodd" clip-rule="evenodd" d="M29.9 46C29.9 66.2216 36.5332 82.8 46 82.8C55.4668 82.8 62.1 66.2216 62.1 46C62.1 25.7784 55.4668 9.20001 46 9.20001C36.5332 9.20001 29.9 25.7784 29.9 46ZM57.5 46C57.5 63.8894 51.773 78.2 46 78.2C40.227 78.2 34.5 63.8894 34.5 46C34.5 28.1106 40.227 13.8 46 13.8C51.773 13.8 57.5 28.1106 57.5 46Z" fill="#B6B4B4"/>
<path d="M17.181 24.4352L20.263 21.022C20.7552 21.4636 21.2796 21.896 21.8408 22.3146C27.9036 26.8594 37.4716 29.6286 47.8998 29.6286C56.7916 29.6286 65.09 27.6184 71.1528 24.1546C72.5497 23.3643 73.8695 22.4449 75.095 21.4084L78.085 24.9044C76.7142 26.0774 75.1594 27.1584 73.439 28.1428C66.6448 32.0298 57.5598 34.2286 47.8998 34.2286C36.5378 34.2286 25.9946 31.1788 19.0808 25.9946C18.4239 25.5027 17.7899 24.9855 17.181 24.4352ZM17.181 67.62L20.263 71.024C20.7552 70.5824 21.2796 70.15 21.8408 69.736C27.9036 65.1912 37.4716 62.422 47.8998 62.422C56.7916 62.422 65.09 64.4276 71.1528 67.896C72.6294 68.7424 73.9496 69.6624 75.095 70.6376L78.085 67.1416C76.6409 65.9194 75.0854 64.8352 73.439 63.9032C66.6448 60.0208 57.5598 57.822 47.8998 57.822C36.5378 57.822 25.9946 60.8718 19.0808 66.0514C18.4092 66.5574 17.7744 67.0818 17.181 67.62ZM9.20001 48.3V43.7H82.8V48.3H9.20001Z" fill="#B6B4B4"/>
<path d="M64.4167 39.5C71.025 39.5 77.3626 42.1251 82.0354 46.7979C86.7082 51.4707 89.3333 57.8084 89.3333 64.4167C89.3333 70.5883 87.0717 76.2617 83.3533 80.6317L84.3883 81.6667H87.4167L106.583 100.833L100.833 106.583L81.6667 87.4167V84.3883L80.6317 83.3533C76.1104 87.2126 70.361 89.333 64.4167 89.3333C57.8084 89.3333 51.4707 86.7082 46.7979 82.0354C42.1251 77.3626 39.5 71.025 39.5 64.4167C39.5 57.8084 42.1251 51.4707 46.7979 46.7979C51.4707 42.1251 57.8084 39.5 64.4167 39.5ZM64.4167 47.1667C54.8333 47.1667 47.1667 54.8333 47.1667 64.4167C47.1667 74 54.8333 81.6667 64.4167 81.6667C74 81.6667 81.6667 74 81.6667 64.4167C81.6667 54.8333 74 47.1667 64.4167 47.1667Z" fill="#358E3F"/>
</svg>
