<svg width="122" height="121" viewBox="0 0 122 121" fill="none" xmlns="http://www.w3.org/2000/svg">
<rect x="45.5" y="45" width="30" height="30" fill="#B6B4B4" stroke="#B6B4B4" stroke-width="2"/>
<rect x="90.5" y="20" width="29" height="28" stroke="#B6B4B4" stroke-width="2"/>
<rect x="90.5" y="70" width="29" height="28" stroke="#B6B4B4" stroke-width="2"/>
<rect x="45.5" y="1" width="30" height="29" stroke="#B6B4B4" stroke-width="2"/>
<rect x="1.5" y="20" width="29" height="28" stroke="#B6B4B4" stroke-width="2"/>
<rect x="1.5" y="70" width="29" height="28" stroke="#B6B4B4" stroke-width="2"/>
<rect x="45.5" y="90" width="30" height="29" stroke="#B6B4B4" stroke-width="2"/>
<line x1="60.5" y1="30" x2="60.5" y2="44" stroke="#B6B4B4" stroke-width="4"/>
<path d="M62.5 76V91" stroke="#B6B4B4" stroke-width="4"/>
<path d="M90.5 42.2222L71.6111 52.2222" stroke="#B6B4B4" stroke-width="4"/>
<path d="M30.5 43.3333L47.9411 54.3655" stroke="#B6B4B4" stroke-width="4"/>
<path d="M90.0193 72.952L69.5918 66.6666" stroke="#B6B4B4" stroke-width="4"/>
<path d="M30.5 78.4569L49.3889 68.4569" stroke="#B6B4B4" stroke-width="4"/>
<path d="M78 58C83.1717 58 88.1316 60.0545 91.7886 63.7114C95.4455 67.3684 97.5 72.3283 97.5 77.5C97.5 82.33 95.73 86.77 92.82 90.19L93.63 91H96L111 106L106.5 110.5L91.5 95.5V93.13L90.69 92.32C87.1516 95.3403 82.6521 96.9997 78 97C72.8283 97 67.8684 94.9455 64.2114 91.2886C60.5545 87.6316 58.5 82.6717 58.5 77.5C58.5 72.3283 60.5545 67.3684 64.2114 63.7114C67.8684 60.0545 72.8283 58 78 58ZM78 64C70.5 64 64.5 70 64.5 77.5C64.5 85 70.5 91 78 91C85.5 91 91.5 85 91.5 77.5C91.5 70 85.5 64 78 64Z" fill="#358E3F"/>
</svg>
