<svg width="121" height="120" viewBox="0 0 121 120" fill="none" xmlns="http://www.w3.org/2000/svg">
<path d="M48 15C56.6195 15 64.886 18.4241 70.981 24.519C77.0759 30.614 80.5 38.8805 80.5 47.5C80.5 55.55 77.55 62.95 72.7 68.65L74.05 70H78L103 95L95.5 102.5L70.5 77.5V73.55L69.15 72.2C63.2527 77.2339 55.7535 79.9995 48 80C39.3805 80 31.114 76.5759 25.019 70.481C18.9241 64.386 15.5 56.1195 15.5 47.5C15.5 38.8805 18.9241 30.614 25.019 24.519C31.114 18.4241 39.3805 15 48 15ZM48 25C35.5 25 25.5 35 25.5 47.5C25.5 60 35.5 70 48 70C60.5 70 70.5 60 70.5 47.5C70.5 35 60.5 25 48 25Z" fill="#358E3F"/>
</svg>
