<svg width="121" height="120" viewBox="0 0 121 120" fill="none" xmlns="http://www.w3.org/2000/svg">
<path d="M60.5 6.66663C49.9517 6.66663 39.6402 9.79457 30.8696 15.6549C22.099 21.5153 15.2631 29.8448 11.2264 39.5902C7.18976 49.3356 6.13359 60.0591 8.19147 70.4048C10.2493 80.7504 15.3289 90.2535 22.7877 97.7123C30.2465 105.171 39.7495 110.251 50.0952 112.309C60.4409 114.366 71.1644 113.31 80.9098 109.274C90.6552 105.237 98.9847 98.401 104.845 89.6304C110.705 80.8598 113.833 70.5483 113.833 60C113.833 45.8551 108.214 32.2895 98.2124 22.2876C88.2104 12.2857 74.6449 6.66663 60.5 6.66663ZM60.5 106.667C51.2702 106.667 42.2477 103.93 34.5734 98.8019C26.8991 93.6741 20.9177 86.3857 17.3856 77.8585C13.8535 69.3313 12.9294 59.9482 14.73 50.8957C16.5307 41.8433 20.9752 33.5281 27.5017 27.0016C34.0281 20.4752 42.3434 16.0306 51.3958 14.23C60.4482 12.4293 69.8314 13.3535 78.3586 16.8856C86.8858 20.4177 94.1741 26.3991 99.3019 34.0733C104.43 41.7476 107.167 50.7702 107.167 60C107.167 72.3767 102.25 84.2466 93.4983 92.9983C84.7466 101.75 72.8768 106.667 60.5 106.667Z" fill="#358E3F"/>
<path d="M63.5667 61.3333V35.8333C63.5667 34.9493 63.2155 34.1014 62.5904 33.4763C61.9652 32.8512 61.1174 32.5 60.2333 32.5C59.3493 32.5 58.5014 32.8512 57.8763 33.4763C57.2512 34.1014 56.9 34.9493 56.9 35.8333V64.9L76.5667 78.2333C76.9289 78.5058 77.343 78.7015 77.7835 78.8085C78.224 78.9156 78.6817 78.9316 79.1286 78.8557C79.5755 78.7798 80.0022 78.6135 80.3826 78.367C80.7631 78.1206 81.0893 77.7991 81.3412 77.4223C81.5932 77.0454 81.7657 76.6212 81.8481 76.1754C81.9305 75.7297 81.9211 75.2718 81.8206 74.8298C81.72 74.3878 81.5303 73.9709 81.2631 73.6047C80.9959 73.2385 80.6569 72.9307 80.2667 72.7L63.5667 61.3333Z" fill="#358E3F"/>
<path d="M27.1667 59.8C27.1362 53.8034 28.7337 47.911 31.7888 42.751C34.8439 37.591 39.2421 33.3569 44.5145 30.5C49.7868 27.6431 55.7357 26.2707 61.7267 26.529C67.7178 26.7873 73.5264 28.6666 78.5333 31.9666L81.3667 27.4333C76.6108 24.318 71.2239 22.2946 65.5931 21.5086C59.9623 20.7226 54.2273 21.1935 48.8001 22.8873C43.3729 24.5812 38.3882 27.456 34.2041 31.3053C30.02 35.1546 26.7404 39.8828 24.6008 45.1502C22.4612 50.4177 21.5148 56.0936 21.8295 61.7703C22.1443 67.447 23.7124 72.9835 26.4211 77.9821C29.1299 82.9807 32.9122 87.3174 37.4962 90.6805C42.0802 94.0437 47.3521 96.3498 52.9333 97.4333L53.8333 92.3333C46.3266 90.8011 39.5769 86.7297 34.72 80.8043C29.8632 74.879 27.1958 67.4614 27.1667 59.8Z" fill="#358E3F"/>
</svg>
