<svg width="143" height="88" viewBox="0 0 143 88" fill="none" xmlns="http://www.w3.org/2000/svg">
<path d="M14.868 54V35.8L16.464 37.452H10.724V34.4H18.508V54H14.868ZM22.7041 47.672V44.76H30.4041V47.672H22.7041ZM32.5073 54V51.564L40.2913 44.172C40.9447 43.556 41.43 43.0147 41.7473 42.548C42.0647 42.0813 42.27 41.652 42.3633 41.26C42.4753 40.8493 42.5313 40.4667 42.5313 40.112C42.5313 39.216 42.2233 38.5253 41.6073 38.04C40.9913 37.536 40.086 37.284 38.8913 37.284C37.9393 37.284 37.0713 37.452 36.2873 37.788C35.522 38.124 34.8593 38.6373 34.2993 39.328L31.7513 37.368C32.5167 36.3413 33.5433 35.548 34.8313 34.988C36.138 34.4093 37.594 34.12 39.1993 34.12C40.618 34.12 41.85 34.3533 42.8953 34.82C43.9593 35.268 44.7713 35.912 45.3313 36.752C45.91 37.592 46.1993 38.5907 46.1993 39.748C46.1993 40.3827 46.1153 41.0173 45.9473 41.652C45.7793 42.268 45.462 42.9213 44.9953 43.612C44.5287 44.3027 43.8473 45.0773 42.9513 45.936L36.2593 52.292L35.5033 50.92H46.9553V54H32.5073ZM49.2275 47.672V44.76H56.9275V47.672H49.2275ZM65.3061 54.28C63.9247 54.28 62.5714 54.084 61.2461 53.692C59.9394 53.2813 58.8381 52.7213 57.9421 52.012L59.5101 49.184C60.2194 49.7627 61.0781 50.2293 62.0861 50.584C63.0941 50.9387 64.1487 51.116 65.2501 51.116C66.5567 51.116 67.5741 50.8547 68.3021 50.332C69.0301 49.7907 69.3941 49.0627 69.3941 48.148C69.3941 47.252 69.0581 46.5427 68.3861 46.02C67.7141 45.4973 66.6314 45.236 65.1381 45.236H63.3461V42.744L68.9461 36.08L69.4221 37.452H58.8941V34.4H72.2501V36.836L66.6501 43.5L64.7461 42.38H65.8381C68.2461 42.38 70.0474 42.9213 71.2421 44.004C72.4554 45.068 73.0621 46.44 73.0621 48.12C73.0621 49.2213 72.7821 50.2387 72.2221 51.172C71.6621 52.1053 70.8034 52.8613 69.6461 53.44C68.5074 54 67.0607 54.28 65.3061 54.28ZM75.7509 47.672V44.76H83.4509V47.672H75.7509ZM86.0731 49.548V47.028L95.7331 34.4H99.6251L90.1051 47.028L88.2851 46.468H103.825V49.548H86.0731ZM96.8251 54V49.548L96.9371 46.468V42.52H100.353V54H96.8251ZM105.938 47.672V44.76H113.638V47.672H105.938ZM122.9 54.28C121.519 54.28 120.165 54.084 118.84 53.692C117.533 53.2813 116.432 52.7213 115.536 52.012L117.076 49.184C117.785 49.7627 118.644 50.2293 119.652 50.584C120.679 50.9387 121.743 51.116 122.844 51.116C124.132 51.116 125.14 50.8453 125.868 50.304C126.615 49.7627 126.988 49.0347 126.988 48.12C126.988 47.504 126.829 46.9627 126.512 46.496C126.213 46.0293 125.672 45.6747 124.888 45.432C124.123 45.1893 123.068 45.068 121.724 45.068H116.992L118 34.4H129.508V37.452H119.344L121.248 35.716L120.492 43.696L118.588 41.988H122.536C124.477 41.988 126.036 42.2493 127.212 42.772C128.407 43.276 129.275 43.9853 129.816 44.9C130.376 45.796 130.656 46.8227 130.656 47.98C130.656 49.1187 130.376 50.164 129.816 51.116C129.256 52.068 128.397 52.8333 127.24 53.412C126.101 53.9907 124.655 54.28 122.9 54.28Z" fill="#358E3F"/>
</svg>
