<svg width="20" height="20" viewBox="0 0 20 20" fill="none" xmlns="http://www.w3.org/2000/svg">
<path d="M10 16.6667L10.295 16.9617L10 17.2559L9.705 16.9617L10 16.6667ZM9.58333 4.16669C9.58333 4.05619 9.62723 3.95021 9.70537 3.87207C9.78351 3.79392 9.88949 3.75003 10 3.75003C10.1105 3.75003 10.2165 3.79392 10.2946 3.87207C10.3728 3.95021 10.4167 4.05619 10.4167 4.16669L9.58333 4.16669ZM15.295 11.9617L10.295 16.9617L9.705 16.3717L14.705 11.3717L15.295 11.9617ZM9.705 16.9617L4.705 11.9617L5.295 11.3717L10.295 16.3717L9.705 16.9617ZM9.58333 16.6667L9.58333 4.16669L10.4167 4.16669L10.4167 16.6667L9.58333 16.6667Z" fill="#111111"/>
</svg>
