<svg width="12" height="12" viewBox="0 0 12 12" fill="none" xmlns="http://www.w3.org/2000/svg">
<path d="M10 6L10.177 5.823L10.3535 6L10.177 6.177L10 6ZM2.50002 6.25C2.43371 6.25 2.37012 6.22366 2.32324 6.17678C2.27635 6.12989 2.25002 6.0663 2.25002 6C2.25002 5.93369 2.27635 5.87011 2.32324 5.82322C2.37012 5.77634 2.43371 5.75 2.50002 5.75L2.50002 6.25ZM7.17702 2.823L10.177 5.823L9.82302 6.177L6.82302 3.177L7.17702 2.823ZM10.177 6.177L7.17702 9.177L6.82302 8.823L9.82302 5.823L10.177 6.177ZM10 6.25L2.50002 6.25L2.50002 5.75L10 5.75L10 6.25Z" fill="#111111"/>
</svg>
